<svg xmlns="http://www.w3.org/2000/svg" viewBox="0 0 52 52"><path fill="#FFFFFF" d="M42.263 46.631a1 1 0 0 1-.707-1.707A21.855 21.855 0 0 0 48 29.368c0-5.876-2.289-11.4-6.444-15.556S31.876 7.368 26 7.368s-11.401 2.289-15.557 6.444S4 23.492 4 29.368a21.856 21.856 0 0 0 6.443 15.556 1 1 0 1 1-1.414 1.414A23.84 23.84 0 0 1 2 29.368a23.84 23.84 0 0 1 7.03-16.97c4.533-4.533 10.56-7.03 16.97-7.03s12.438 2.497 16.971 7.03A23.84 23.84 0 0 1 50 29.368c0 6.41-2.497 12.438-7.03 16.97a.997.997 0 0 1-.707.293z"/><path fill="#FFFFFF" d="M25.997 24.37c-1.71 0-3.23.87-4.13 2.18-.37.55-.64 1.17-.77 1.84-.07.32-.1.65-.1.98 0 2.75 2.25 5 5 5 2.76 0 5-2.25 5-5 0-2.76-2.24-5-5-5zm0 8c-1.65 0-3-1.35-3-3 0-.42.08-.81.24-1.17a2.985 2.985 0 0 1 2.76-1.83c1.66 0 3 1.34 3 3 0 1.65-1.34 3-3 3z"/><path fill="#FFFFFF" d="M28.997 29.37c0 1.65-1.34 3-3 3-1.65 0-3-1.35-3-3 0-.42.08-.81.24-1.17a2.985 2.985 0 0 1 2.76-1.83c1.66 0 3 1.34 3 3z"/><path fill="#FFFFFF" d="M22.313 28.818c-.13 0-.26-.026-.387-.078L9.969 23.71a1 1 0 0 1 .775-1.843l11.957 5.028a1 1 0 0 1-.388 1.922zM8 30.369H3a1 1 0 1 1 0-2h5a1 1 0 1 1 0 2zM13.272 17.64a.997.997 0 0 1-.707-.293l-3.536-3.535a1 1 0 1 1 1.414-1.414l3.536 3.535a1 1 0 0 1-.707 1.707zM26 12.368a1 1 0 0 1-1-1v-5a1 1 0 1 1 2 0v5a1 1 0 0 1-1 1zM38.729 17.64a1 1 0 0 1-.707-1.707l3.535-3.535a1 1 0 1 1 1.414 1.414l-3.535 3.535a.997.997 0 0 1-.707.293zM49 30.369h-5a1 1 0 1 1 0-2h5a1 1 0 1 1 0 2zM42.264 46.632a.997.997 0 0 1-.707-.293l-3.536-3.535a1 1 0 1 1 1.415-1.414l3.535 3.535a1 1 0 0 1-.707 1.707zM9.736 46.632a1 1 0 0 1-.707-1.707l3.536-3.535a1 1 0 1 1 1.414 1.414l-3.536 3.535a.997.997 0 0 1-.707.293z"/></svg>